# xmcd
#
# Track frame offsets:
#	150
#	17213
#	35169
#	50709
#
# Disc length: 872 seconds
#
# Revision: 0
# Processed by: cddbd v1.5.2PL0 Copyright (c) Steve Scherf et al.
# Submitted via: dBpowerAMP V4.0
#
DISCID=34036604
DTITLE=Craig Morgan - Craig Morgan
DYEAR=1900
DGENRE=Country
TTITLE0=Love Remembers
TTITLE1=I Will
TTITLE2=So Do You Believe Me Now
TTITLE3=That's What I Love About Sunday
EXTD=
EXTT0=
EXTT1=
EXTT2=
EXTT3=
PLAYORDER=
